<svg width="183" height="93" viewBox="0 0 183 93" fill="none" xmlns="http://www.w3.org/2000/svg">
<path d="M180.138 40.4164C177.82 40.1074 175.483 39.9674 173.145 39.9975C173.322 39.2142 173.483 38.3944 173.629 37.5382C173.649 37.5191 173.662 37.4933 173.665 37.4654C173.687 37.2764 173.71 37.0873 173.733 36.8979C173.845 36.184 173.951 35.4475 174.04 34.6841C174.056 34.5465 174.058 34.4076 174.046 34.2696C174.908 27.0446 175.77 19.8213 176.632 12.5997C176.679 12.1245 176.541 11.6496 176.247 11.2731C175.886 10.7981 175.363 10.4711 174.778 10.3531C174.537 10.2824 174.284 10.2631 174.035 10.2964C173.786 10.3297 173.546 10.4149 173.332 10.5464C173.118 10.678 172.934 10.853 172.792 11.0601C172.65 11.2672 172.553 11.5018 172.507 11.7488C172.082 15.3091 171.657 18.8704 171.233 22.4326C171.209 22.4504 171.194 22.4765 171.189 22.5055C170.117 31.0861 167.838 34.1413 166.055 34.1494C165.82 34.1673 165.584 34.1332 165.363 34.0493C165.143 33.9655 164.944 33.834 164.78 33.6642C164.317 32.9588 164.118 32.1132 164.217 31.2755L165.9 16.9465C165.927 16.7196 165.907 16.4896 165.84 16.2712L166.036 14.6234C166.053 14.1298 165.885 13.6478 165.566 13.2708C165.247 12.8939 164.799 12.649 164.31 12.5837C164.082 12.5217 163.844 12.5075 163.611 12.542C163.378 12.5765 163.154 12.659 162.954 12.7842C162.754 12.9095 162.582 13.0748 162.45 13.2697C162.317 13.4646 162.226 13.6849 162.182 13.9168L161.903 16.2005C161.833 16.3569 161.787 16.5229 161.766 16.693L160.12 30.3365L160.114 30.3533C159.27 37.1142 157.078 36.7245 156.14 36.5621C155.658 36.4735 155.228 36.2034 154.939 35.8074C154.376 34.9475 154.166 33.9043 154.35 32.8935L155.661 21.9438C155.662 21.9346 155.662 21.9253 155.661 21.9161C156.368 16.201 157.074 10.4864 157.78 4.77224C157.831 4.30101 157.695 3.82862 157.401 3.45662C157.038 2.99225 156.515 2.68042 155.934 2.58245C155.688 2.52116 155.432 2.51061 155.182 2.55145C154.932 2.59229 154.693 2.68366 154.479 2.81998C154.265 2.95631 154.081 3.13474 153.939 3.34439C153.797 3.55404 153.698 3.79052 153.65 4.0394C152.954 9.75936 152.257 15.4815 151.561 21.2059C151.543 21.2239 151.532 21.2471 151.528 21.2721C151.087 24.9606 150.646 28.6494 150.205 32.3384L150.2 32.3777C150.191 32.4506 150.185 32.519 150.178 32.5897L150.172 32.6072C149.328 39.382 147.133 39.0301 146.195 38.8837C145.714 38.8045 145.283 38.5411 144.993 38.1494C144.428 37.2939 144.217 36.2529 144.404 35.245C144.841 31.5876 145.278 27.9306 145.715 24.2742C145.716 24.2607 145.714 24.2472 145.711 24.2341L147.833 7.04216C147.885 6.57206 147.748 6.10047 147.453 5.73091C147.09 5.27093 146.565 4.96627 145.985 4.8786C145.736 4.82282 145.479 4.81759 145.228 4.86324C144.977 4.90888 144.738 5.00446 144.525 5.1443C144.312 5.28414 144.129 5.46539 143.987 5.67729C143.846 5.88918 143.748 6.1274 143.7 6.37779C143.005 12.1225 142.307 17.8668 141.608 23.6105C141.592 23.629 141.581 23.6518 141.578 23.6761L140.385 33.6773L140.256 34.7372C140.256 34.7372 140.256 34.7416 140.256 34.7445C139.832 38.8822 139.046 40.7981 137.629 41.1551C137.361 41.2335 137.078 41.242 136.807 41.1799C136.535 41.1178 136.284 40.9871 136.077 40.8003C135.392 40.1884 135.086 38.9791 135.258 37.5703C135.926 32.1917 136.594 26.8141 137.262 21.4375C137.288 21.2061 137.268 20.9718 137.202 20.7482C137.137 20.5247 137.028 20.3162 136.882 20.135C136.517 19.6807 135.991 19.385 135.414 19.3096C135.162 19.2599 134.904 19.2604 134.652 19.311C134.401 19.3616 134.163 19.4614 133.95 19.6046C133.738 19.7478 133.556 19.9316 133.415 20.1454C133.273 20.3591 133.176 20.5987 133.128 20.8504L132.777 23.6746C132.696 23.5581 132.616 23.4415 132.53 23.3315C132.101 22.7558 131.561 22.2717 130.942 21.9078C130.323 21.5438 129.637 21.3074 128.925 21.2124C127.998 21.1308 127.064 21.2698 126.2 21.6181C125.337 21.9664 124.568 22.5141 123.957 23.2164C121.895 25.329 120.548 28.8373 119.955 33.6336C119.803 34.8545 119.722 35.9647 119.696 36.9773C119.29 42.368 117.899 46.6791 116.422 47.0797C116.187 47.1696 115.933 47.1973 115.685 47.1601C115.437 47.123 115.202 47.0223 115.004 46.8678C114.437 46.3637 114.249 45.2134 114.477 43.629C114.477 43.629 114.477 43.6217 114.477 43.6188L115.467 35.6238C115.963 31.6099 115.568 28.9291 114.257 27.4343C113.849 26.9922 113.351 26.6445 112.795 26.4153C112.24 26.1862 111.641 26.0812 111.04 26.1077C109.135 26.0924 107.347 27.352 105.868 29.7443C105.629 30.1333 105.4 30.5507 105.181 30.99C105.083 30.4276 104.935 29.8751 104.738 29.3392C104.531 28.8461 104.155 28.4427 103.678 28.2008C103.201 27.9589 102.653 27.8943 102.133 28.0185C101.875 28.0753 101.633 28.1863 101.422 28.3441C101.211 28.5018 101.036 28.7028 100.909 28.9335C100.799 29.1428 100.736 29.373 100.722 29.6088C100.709 29.8446 100.746 30.0806 100.832 30.3008C101.365 31.7381 101.396 33.6001 100.904 37.9032C100.708 39.1522 100.421 40.3856 100.048 41.5936C98.9397 45.1194 97.2358 47.538 94.9703 48.8492C95.0679 48.2708 95.1516 47.6938 95.2216 47.1271C95.9318 41.3678 95.242 37.3248 93.1724 35.1262C92.0807 33.9767 90.5844 33.2974 89.0004 33.2322C82.7793 32.8774 80.588 39.9779 79.8523 45.9543C79.7721 46.6048 79.7131 47.2291 79.668 47.8352C78.5082 53.8188 77.0557 57.1523 75.4996 59.1068C76.1127 57.2456 76.3776 55.2873 76.2813 53.33C76.1808 50.2668 75.0283 48.4675 73.9145 46.7323C72.6265 44.7268 71.4107 42.8378 72.1421 39.1561C72.1914 38.892 72.1837 38.6203 72.1195 38.3594C72.0553 38.0984 71.9361 37.8542 71.7699 37.6431C71.6062 37.4531 71.4007 37.3038 71.1695 37.2068C70.9383 37.1099 70.6877 37.068 70.4375 37.0844C70.033 37.0968 69.643 37.2384 69.3249 37.4885C69.0067 37.7387 68.777 38.0841 68.6695 38.4743L68.3395 39.6639C67.0967 44.1586 64.6884 52.5018 62.5292 57.848C60.0276 64.04 57.9682 67.1878 56.233 67.4639C56.139 67.483 56.0417 67.4774 55.9505 67.4476C55.8594 67.4179 55.7775 67.365 55.7129 67.2941C55.0128 66.5657 55.0915 63.7173 55.9314 59.4842C56.7507 55.7119 57.7669 51.985 58.9757 48.3189L58.9873 48.2832C59.2387 47.4819 59.4375 46.8539 59.5789 46.3709C59.6433 46.1522 59.6625 45.9226 59.6353 45.6961C59.6081 45.4697 59.5351 45.2512 59.4208 45.0539C59.278 44.815 59.0869 44.6087 58.8597 44.448C58.6325 44.2873 58.3743 44.1758 58.1015 44.1207C57.7951 44.0533 57.4781 44.0505 57.1705 44.1125C56.863 44.1744 56.5717 44.2998 56.3153 44.4806C56.1215 44.5745 55.9088 44.6802 55.6692 44.8004C53.8662 45.7022 50.8481 47.2335 49.1807 46.6157C49.1555 46.608 49.1286 46.608 49.1034 46.6157C48.9213 46.5737 48.7334 46.5626 48.5476 46.5829C47.9215 46.6516 47.3434 46.951 46.926 47.4229C46.6189 47.761 46.4542 48.2046 46.4664 48.6613C47.0491 60.0313 43.9378 69.6194 40.5599 73.2574C39.9583 73.9672 39.2183 74.547 38.3852 74.9613C37.552 75.3757 36.6432 75.6158 35.7141 75.6672C35.455 75.6796 35.1964 75.6328 34.9581 75.5303C34.7198 75.4278 34.508 75.2723 34.3387 75.0757C33.9179 74.5487 33.6325 73.9267 33.5076 73.264C35.6773 71.8082 37.6015 70.0163 39.2079 67.9556C41.1552 65.6085 42.4008 62.7596 42.8014 59.7362C43.2334 55.1636 41.7684 52.7859 38.3228 52.512C38.3053 52.511 38.2877 52.5132 38.271 52.5185C37.4369 52.5491 35.3681 52.8886 33.3458 55.2569C31.2857 57.6674 29.941 61.376 29.3487 66.2568C29.0452 68.4418 28.9963 70.6546 29.203 72.8509C27.268 74.1323 25.2443 75.2745 23.1472 76.2689C22.8342 76.4253 22.5887 76.6901 22.4564 77.014C22.3241 77.3379 22.3141 77.6989 22.4282 78.0296C22.4706 78.2927 22.5711 78.543 22.7223 78.7623C22.8735 78.9817 23.0717 79.1647 23.3024 79.2979C23.5596 79.4379 23.8506 79.504 24.143 79.4888C24.3596 79.4762 24.5724 79.427 24.7724 79.3431C26.6579 78.5594 28.4709 77.6119 30.1908 76.5115C30.4448 77.0402 30.7716 77.5306 31.1619 77.9684C31.599 78.462 32.1401 78.8527 32.7462 79.1123C33.3523 79.3719 34.0084 79.494 34.6673 79.4698C34.9247 79.4606 35.1792 79.4441 35.4307 79.4203C38.1257 79.1692 40.6442 77.9699 42.5377 76.0358C46.9945 71.6213 49.5784 63.0085 50.2267 50.352C51.7048 50.1256 53.1403 49.6774 54.4847 49.0226C52.0013 57.1363 51.0171 62.1351 51.2065 65.5349C51.5132 70.9824 54.8933 71.1849 55.9219 71.1266C63.4645 70.6764 67.7851 54.2807 69.6296 47.267C69.7025 46.9843 69.7753 46.7155 69.8416 46.4656C70.2787 47.6465 70.6976 48.5491 71.0705 49.3555C71.7684 50.642 72.2079 52.0526 72.3643 53.5078C72.765 58.2822 71.3663 60.5259 70.1228 61.5734C69.6587 61.9913 69.1023 62.2933 68.4992 62.4549C67.896 62.6164 67.2631 62.6329 66.6523 62.503C66.4659 62.4524 66.2711 62.4401 66.0798 62.4668C65.8885 62.4935 65.7045 62.5586 65.539 62.6582C65.3735 62.7579 65.2298 62.89 65.1167 63.0466C65.0036 63.2032 64.9233 63.381 64.8807 63.5695C64.6852 64.0438 64.684 64.576 64.8776 65.0511C65.0711 65.5263 65.4438 65.9062 65.9151 66.1089C66.7688 66.3789 67.6719 66.4553 68.5588 66.3325C68.5588 66.3427 68.5587 66.3537 68.5638 66.3639C74.2139 65.2712 78.4434 61.5458 80.5458 55.8651C80.8648 56.6498 81.3247 57.3695 81.9029 57.9886C83.0029 59.119 84.4978 59.7795 86.0742 59.8317C86.2373 59.8404 86.3969 59.844 86.5549 59.8426C90.6206 59.8156 92.8715 56.5135 94.1092 52.5396C96.2255 51.9023 98.1134 50.6689 99.5473 48.9869L99.0024 53.4036C98.9748 53.6312 98.9943 53.8621 99.0596 54.0819C99.1249 54.3016 99.2346 54.5057 99.3819 54.6814C99.5655 54.8944 99.7897 55.0686 100.042 55.1938C100.293 55.3191 100.568 55.3927 100.848 55.4106C100.897 55.4144 100.945 55.4169 100.994 55.4178C101.494 55.4473 101.988 55.2934 102.382 54.985C102.777 54.6765 103.046 54.2347 103.138 53.7424L104.679 41.2578C105.804 33.3415 107.978 30.2957 109.688 30.1245C109.915 30.0808 110.149 30.091 110.371 30.1542C110.594 30.2175 110.798 30.3321 110.968 30.4888C111.721 31.2602 111.582 33.1615 111.35 35.0782C111.333 35.1403 111.32 35.2036 111.313 35.2676C110.905 38.5607 110.498 41.8542 110.091 45.1478C109.811 47.4061 110.286 49.1486 111.461 50.186C112.182 50.7987 113.095 51.1401 114.041 51.1512C114.658 51.1697 115.275 51.1 115.873 50.9443C118.544 50.2202 120.178 48.222 121.332 45.0524C121.472 45.2783 121.625 45.496 121.79 45.7044C122.208 46.2587 122.731 46.725 123.33 47.0767C123.928 47.4283 124.59 47.6584 125.278 47.7536C125.433 47.7725 125.586 47.7864 125.736 47.7951C128.975 47.9925 131.054 45.9317 132.384 43.0426C132.608 43.3627 132.869 43.656 133.16 43.9167C133.962 44.6183 134.973 45.0333 136.036 45.0961C136.84 45.1476 137.646 45.0681 138.424 44.8608C139.262 44.6529 140.04 44.2559 140.701 43.7003C141.361 43.1446 141.885 42.4452 142.233 41.6555C142.943 42.2387 143.8 42.6143 144.71 42.741C144.887 42.7682 145.061 42.7898 145.23 42.8058C148.545 43.1212 150.381 41.2425 151.511 38.577C152.292 39.5581 153.415 40.2072 154.655 40.3938C154.833 40.4244 155.006 40.4492 155.176 40.4667C158.482 40.8382 160.316 38.9988 161.446 36.3603C161.466 36.3858 161.483 36.4127 161.504 36.4375C162.268 37.3476 163.362 37.9183 164.545 38.0248C164.6 38.0316 164.656 38.0379 164.712 38.0438C166.612 38.2354 168.394 37.1609 169.865 34.931L169.888 34.8946C169.644 36.6964 169.284 38.4803 168.808 40.235C162.87 40.8513 157.507 42.69 156.472 46.403C156.37 46.5933 156.302 46.8002 156.273 47.0142C156.17 47.762 156.245 48.5236 156.494 49.2365C156.742 49.9494 157.155 50.5933 157.701 51.1155C158.419 51.7825 159.279 52.2777 160.217 52.5638C161.154 52.8498 162.145 52.9193 163.113 52.7669C167.165 52.1048 170.106 49.2091 172.009 43.9437C174.753 43.823 177.501 43.9449 180.223 44.3079C180.464 44.3499 180.711 44.3369 180.946 44.2699C181.18 44.2029 181.397 44.0836 181.579 43.9211C181.761 43.7585 181.905 43.5568 181.998 43.3311C182.091 43.1054 182.132 42.8616 182.117 42.6179C182.092 42.0785 181.881 41.5644 181.52 41.1625C181.16 40.7605 180.672 40.4952 180.138 40.4113M33.4588 66.0987C34.1763 60.1872 35.5808 56.4945 37.214 56.2279C37.2526 56.2197 37.2863 56.1967 37.308 56.1638C37.3293 56.179 37.3547 56.1871 37.3808 56.1871C37.5463 56.1804 37.7112 56.2104 37.8637 56.2749C38.0162 56.3393 38.1526 56.4367 38.263 56.5601C38.7198 57.0627 38.8917 58.0607 38.7613 59.4463C38.3883 63.3946 35.8831 67.0559 33.2074 69.2399C33.2388 68.2841 33.3225 67.2344 33.4609 66.0987M91.1174 46.5399C90.3619 52.673 88.5087 56.2498 86.1718 56.1237C85.9513 56.124 85.7331 56.0788 85.5308 55.9911C85.3285 55.9034 85.1465 55.7749 84.996 55.6138C84.4183 55.0084 83.161 52.9075 83.9543 46.4562C84.6952 40.4339 86.4865 36.8593 88.7622 36.8505C88.8074 36.8505 88.8533 36.8505 88.8984 36.8542C89.1195 36.8553 89.3379 36.9018 89.5402 36.9909C89.7424 37.08 89.9242 37.2098 90.0742 37.3721C90.6519 37.9818 91.9092 40.0995 91.1159 46.5399M131.208 34.998C130.47 40.9445 128.648 44.4631 126.446 44.1906C126.169 44.1529 125.903 44.0598 125.663 43.917C125.423 43.7742 125.215 43.5846 125.05 43.3594C123.866 41.8675 123.52 38.5887 124.073 34.1231C124.801 28.275 126.571 24.7601 128.716 24.8992C128.755 24.8992 128.795 24.9058 128.835 24.9109C129.112 24.9502 129.378 25.0448 129.618 25.1891C129.858 25.3333 130.067 25.5244 130.231 25.7508C131.414 27.2544 131.761 30.5398 131.208 34.998ZM162.002 48.7662C161.713 48.8218 161.415 48.8167 161.128 48.7512C160.841 48.6858 160.57 48.5614 160.334 48.3859C160.279 48.3313 160.222 48.2752 160.256 48.0304C160.27 47.9235 160.275 47.8155 160.272 47.7077C160.782 46.387 163.375 45.158 167.177 44.4733C165.834 46.9836 164.11 48.4148 162.005 48.7669" fill="currentColor"/>
<path d="M28.0805 60.6636C28.2262 57.5843 27.2442 55.0361 25.2394 53.3111C22.8748 51.275 19.2383 50.5531 15.2666 51.3712C6.9045 53.0904 0.643281 59.5038 0.02845 66.7099C-0.14347 68.727 0.480832 70.5184 1.61943 71.2796C1.91975 71.4853 2.26921 71.6078 2.63224 71.6345C2.99526 71.6613 3.35889 71.5913 3.68611 71.4319C4.22672 71.1995 4.66091 70.7733 4.90339 70.2372C5.01891 69.986 5.07927 69.713 5.08041 69.4366C5.08154 69.1601 5.02341 68.8866 4.90995 68.6345C4.4572 67.6638 4.23054 66.603 4.24704 65.532C4.24704 61.3607 8.80582 56.4618 14.0086 55.1498C17.1119 54.3638 19.7832 54.7426 21.5286 56.1886C23.0453 57.4452 23.7599 59.4543 23.596 61.9894C23.2645 67.1273 20.543 71.0363 15.0568 74.3662C15.3861 71.6499 15.7154 68.9332 16.0447 66.216C16.0586 66.1021 16.0608 65.9872 16.0512 65.8729C16.3856 62.3478 16.3273 60.1908 15.6083 58.355C15.3842 57.8902 14.9856 57.5327 14.4993 57.3603C14.0129 57.1879 13.4781 57.2144 13.0113 57.4343C12.4821 57.6382 12.0474 58.0312 11.7911 58.5372C11.6828 58.7489 11.6199 58.981 11.6066 59.2185C11.5933 59.456 11.6299 59.6936 11.7139 59.9162C12.2967 61.4052 12.2777 63.4973 11.6294 68.8713C11.6294 68.8815 11.6294 68.8909 11.6294 68.9011C10.7377 76.2602 9.84656 83.6209 8.95588 90.9833C8.92448 91.2018 8.94219 91.4246 9.00772 91.6355C9.07325 91.8463 9.18495 92.0398 9.33469 92.2021C9.52523 92.3912 9.75574 92.5351 10.0093 92.6234C10.2628 92.7116 10.5329 92.7419 10.7996 92.712C10.8477 92.7084 10.8958 92.7033 10.9453 92.6967C11.4673 92.6295 11.9547 92.3994 12.3382 92.039C12.7217 91.6787 12.9817 91.2065 13.0812 90.6898C13.5839 86.5428 14.0865 82.3973 14.5892 78.2533C14.6754 78.2544 14.7616 78.2493 14.847 78.238C15.1132 78.2005 15.3698 78.1127 15.6032 77.9794C23.5436 73.5357 27.7476 67.7902 28.0841 60.6621" fill="currentColor"/>
<path d="M171.336 0V0.842843H169.707V5.09275H168.696V0.842843H167.067V0H171.336ZM176.841 5.09275L176.654 2.09654C176.635 1.70317 176.635 1.21655 176.617 0.673109H176.561C176.429 1.12258 176.279 1.72138 176.13 2.18979L175.213 5.01699H174.165L173.247 2.11476C173.153 1.72138 173.003 1.12258 172.891 0.673109H172.835C172.835 1.14152 172.816 1.62814 172.798 2.09654L172.611 5.09275H171.638L172.01 0H173.526L174.406 2.49065C174.519 2.88402 174.613 3.25846 174.744 3.78296H174.763C174.894 3.31528 175.006 2.88402 175.119 2.50959L175.998 0H177.459L177.852 5.09275H176.841Z" fill="currentColor"/>
</svg>
